<?xml version="1.0" standalone="no"?>
<!DOCTYPE svg PUBLIC "-//W3C//DTD SVG 20010904//EN"
 "http://www.w3.org/TR/2001/REC-SVG-20010904/DTD/svg10.dtd">
<svg version="1.0" xmlns="http://www.w3.org/2000/svg"
 width="260.000000pt" height="260.000000pt" viewBox="0 0 260.000000 260.000000"
 preserveAspectRatio="xMidYMid meet">
<metadata>
Created by potrace 1.14, written by Peter Selinger 2001-2017
</metadata>
<g transform="translate(0.000000,260.000000) scale(0.100000,-0.100000)"
fill="#000000" stroke="none">
<path d="M1170 1937 c-214 -55 -372 -178 -453 -352 -53 -112 -62 -159 -61
-300 1 -156 38 -262 134 -385 219 -280 640 -332 910 -111 158 128 240 292 246
491 3 124 -15 210 -69 316 -31 62 -53 92 -114 159 -67 75 -207 153 -323 179
-70 16 -215 18 -270 3z"/>
</g>
</svg>
